HIERARCHY
ROOT Hips
{
	OFFSET 0.00000 0.00000 0.00000
	CHANNELS 6 Xposition Yposition Zposition Zrotation Yrotation Xrotation 
	JOINT LHipJoint
	{
		OFFSET 0 0 0
		CHANNELS 3 Zrotation Yrotation Xrotation
		JOINT LeftUpLeg
		{
			OFFSET 1.37590 -1.78394 0.89329
			CHANNELS 3 Zrotation Yrotation Xrotation
			JOINT LeftLeg
			{
				OFFSET 2.47928 -6.81178 0.00000
				CHANNELS 3 Zrotation Yrotation Xrotation
				JOINT LeftFoot
				{
					OFFSET 2.63345 -7.23535 0.00000
					CHANNELS 3 Zrotation Yrotation Xrotation
					JOINT LeftToeBase
					{
						OFFSET 0.23938 -0.65768 2.27012
						CHANNELS 3 Zrotation Yrotation Xrotation
						End Site
						{
							OFFSET 0.00000 -0.00000 1.18363
						}
					}
				}
			}
		}
	}
	JOINT RHipJoint
	{
		OFFSET 0 0 0
		CHANNELS 3 Zrotation Yrotation Xrotation
		JOINT RightUpLeg
		{
			OFFSET -1.33617 -1.78394 0.89329
			CHANNELS 3 Zrotation Yrotation Xrotation
			JOINT RightLeg
			{
				OFFSET -2.56922 -7.05888 0.00000
				CHANNELS 3 Zrotation Yrotation Xrotation
				JOINT RightFoot
				{
					OFFSET -2.56568 -7.04915 0.00000
					CHANNELS 3 Zrotation Yrotation Xrotation
					JOINT RightToeBase
					{
						OFFSET -0.27533 -0.75646 2.18105
						CHANNELS 3 Zrotation Yrotation Xrotation
						End Site
						{
							OFFSET -0.00000 -0.00000 1.15233
						}
					}
				}
			}
		}
	}
	JOINT LowerBack
	{
		OFFSET 0 0 0
		CHANNELS 3 Zrotation Yrotation Xrotation
		JOINT Spine
		{
			OFFSET 0.06190 2.15152 -0.00935
			CHANNELS 3 Zrotation Yrotation Xrotation
			JOINT Spine1
			{
				OFFSET 0.06334 2.15332 0.00872
				CHANNELS 3 Zrotation Yrotation Xrotation
				JOINT Neck
				{
					OFFSET 0 0 0
					CHANNELS 3 Zrotation Yrotation Xrotation
					JOINT Neck1
					{
						OFFSET -0.04202 1.66908 0.23524
						CHANNELS 3 Zrotation Yrotation Xrotation
						JOINT Head
						{
							OFFSET 0.07510 1.69357 -0.24440
							CHANNELS 3 Zrotation Yrotation Xrotation
							End Site
							{
								OFFSET 0.02556 1.71719 -0.11000
							}
						}
					}
				}
				JOINT LeftShoulder
				{
					OFFSET 0 0 0
					CHANNELS 3 Zrotation Yrotation Xrotation
					JOINT LeftArm
					{
						OFFSET 3.67168 1.26306 -0.41342
						CHANNELS 3 Zrotation Yrotation Xrotation
						JOINT LeftForeArm
						{
							OFFSET 4.68510 -0.00000 -0.00000
							CHANNELS 3 Zrotation Yrotation Xrotation
							JOINT LeftHand
							{
								OFFSET 3.39626 -0.00000 -0.00000
								CHANNELS 3 Zrotation Yrotation Xrotation
								JOINT LeftFingerBase
								{
									OFFSET 0 0 0
									CHANNELS 3 Zrotation Yrotation Xrotation
									JOINT LeftHandIndex1
									{
										OFFSET 0.48608 -0.00000 -0.00000
										CHANNELS 3 Zrotation Yrotation Xrotation
										End Site
										{
											OFFSET 0.39189 -0.00000 -0.00000
										}
									}
								}
								JOINT LThumb
								{
									OFFSET 0 0 0
									CHANNELS 3 Zrotation Yrotation Xrotation
									End Site
									{
										OFFSET 0.39787 -0.00000 0.39787
									}
								}
							}
						}
					}
				}
				JOINT RightShoulder
				{
					OFFSET 0 0 0
					CHANNELS 3 Zrotation Yrotation Xrotation
					JOINT RightArm
					{
						OFFSET -3.04136 1.42992 -0.76390
						CHANNELS 3 Zrotation Yrotation Xrotation
						JOINT RightForeArm
						{
							OFFSET -5.55576 -0.00000 -0.00000
							CHANNELS 3 Zrotation Yrotation Xrotation
							JOINT RightHand
							{
								OFFSET -3.32774 -0.00000 -0.00000
								CHANNELS 3 Zrotation Yrotation Xrotation
								JOINT RightFingerBase
								{
									OFFSET 0 0 0
									CHANNELS 3 Zrotation Yrotation Xrotation
									JOINT RightHandIndex1
									{
										OFFSET -0.50763 -0.00000 -0.00000
										CHANNELS 3 Zrotation Yrotation Xrotation
										End Site
										{
											OFFSET -0.40926 -0.00000 -0.00000
										}
									}
								}
								JOINT RThumb
								{
									OFFSET 0 0 0
									CHANNELS 3 Zrotation Yrotation Xrotation
									End Site
									{
										OFFSET -0.41551 -0.00000 0.41551
									}
								}
							}
						}
					}
				}
			}
		}
	}
}
MOTION
Frames: 13
Frame Time: .0083333
1.8823 17.7702 6.6589 -183.9330 -72.5810 193.6780 0.0000 0.0000 0.0000 -14.9134 2.4384 -31.8222 9.6736 17.2222 58.3919 0.3997 7.3818 -16.8704 0.7203 -5.4235 -15.1204 0.0000 0.0000 0.0000 10.3614 4.7204 -33.7195 -4.0009 -12.1615 36.3059 -0.5199 -1.4807 -14.2373 -0.2479 3.2037 -8.8464 6.1953 0.1474 11.1192 6.0924 0.7690 2.8240 2.7911 0.1978 -3.2676 0.3424 1.4980 -12.8446 -0.9895 1.9722 3.5423 -0.2519 0.9203 3.4487 -0.0000 -0.0000 0.0000 -88.7737 6.7564 32.4700 53.2809 -54.2360 -28.8159 -0.0000 -0.0000 18.0707 12.7535 10.1895 2.2929 -7.1250 0.0000 -0.0000 -12.4902 40.1106 1.5329 -0.0000 -0.0000 0.0000 68.4610 -4.9513 12.4124 -82.3455 59.7774 -53.3760 0.0000 0.0000 13.1980 -36.2255 -25.7164 17.6343 7.1250 -0.0000 -0.0000 -7.8212 -60.6491 2.9943
1.7556 17.7155 6.6580 -184.4130 -72.4448 193.9380 0.0000 0.0000 0.0000 -14.1274 2.1767 -32.3865 9.5318 17.1380 57.9118 0.4205 7.8475 -17.5554 0.7342 -5.4744 -15.2668 0.0000 0.0000 0.0000 10.1711 4.7243 -33.7428 -4.2284 -12.4583 37.3733 -0.5091 -1.7060 -14.2046 -0.1607 2.5831 -7.1203 6.0844 0.1558 11.5678 5.9443 0.7909 3.0009 2.6945 0.2086 -3.3287 0.4576 1.5773 -12.7665 -0.8289 2.0434 3.3232 -0.2158 0.9645 3.3563 -0.0000 0.0000 0.0000 -88.5983 6.6717 31.1986 54.1472 -54.5371 -29.5202 -0.0000 -0.0000 18.2610 12.4009 10.1311 2.2149 -7.1250 0.0000 -0.0000 -12.7791 40.0232 1.5978 -0.0000 0.0000 0.0000 68.3369 -4.0885 11.7088 -81.1350 59.7009 -52.3304 0.0000 0.0000 14.0543 -37.5115 -25.3044 18.1653 7.1250 -0.0000 -0.0000 -9.5094 -60.5257 3.6189
1.6290 17.6525 6.6536 -184.5690 -72.4336 193.8660 0.0000 0.0000 0.0000 -13.1619 1.8881 -32.9506 9.3890 17.0516 57.4260 0.4417 8.2490 -18.1810 0.7472 -5.5213 -15.4016 0.0000 0.0000 0.0000 10.1024 4.7303 -33.7255 -4.4739 -12.7657 38.4976 -0.5104 -1.9302 -14.3341 -0.0996 2.0351 -5.6026 6.0466 0.1321 11.9832 5.8140 0.7730 3.1753 2.5815 0.1985 -3.3722 0.5554 1.6608 -12.6708 -0.6505 2.1230 3.1172 -0.1705 1.0131 3.2650 0.0000 -0.0000 0.0000 -88.3984 6.5120 29.8031 54.9215 -54.7973 -30.1518 -0.0000 -0.0000 18.3801 12.1697 10.1700 2.1807 -7.1250 0.0000 -0.0000 -12.9857 40.0429 1.6182 0.0000 -0.0000 0.0000 68.3029 -3.1100 10.8981 -79.5099 59.5801 -50.9281 0.0000 0.0000 14.8628 -38.9670 -25.0029 18.8737 7.1250 -0.0000 -0.0000 -11.4092 -60.5752 4.3655
1.5023 17.5830 6.6455 -184.3690 -72.5506 193.4490 0.0000 0.0000 0.0000 -12.0153 1.5768 -33.5350 9.2424 16.9612 56.9246 0.4645 8.5643 -18.7360 0.7616 -5.5733 -15.5511 0.0000 0.0000 0.0000 10.1713 4.7266 -33.6798 -4.7361 -13.0803 39.6698 -0.5268 -2.2147 -14.6941 -0.0648 1.6425 -4.5185 6.0796 0.0799 12.3513 5.7123 0.7206 3.3409 2.4645 0.1704 -3.3975 0.6193 1.7456 -12.5747 -0.4582 2.2101 2.9402 -0.1145 1.0651 3.1833 0.0000 0.0000 0.0000 -88.1775 6.2860 28.2874 55.6126 -55.0227 -30.7174 -0.0000 -0.0000 18.3572 12.0084 10.3158 2.1814 -7.1250 0.0000 -0.0000 -13.1570 40.1743 1.5970 0.0000 0.0000 0.0000 68.3540 -2.0158 9.9793 -77.4600 59.3974 -49.1620 0.0000 0.0000 15.5749 -40.6173 -24.9009 19.8549 7.1250 -0.0000 -0.0000 -13.5879 -60.9153 5.3259
1.3755 17.5086 6.6338 -183.8070 -72.7799 192.6890 0.0000 0.0000 0.0000 -10.7027 1.2578 -34.1586 9.0934 16.8675 56.4126 0.4890 8.7847 -19.2140 0.7807 -5.6410 -15.7463 0.0000 0.0000 0.0000 10.3798 4.7124 -33.6105 -5.0121 -13.3974 40.8750 -0.5596 -2.5784 -15.3029 -0.0494 1.4341 -3.9440 6.1725 0.0113 12.6611 5.6426 0.6483 3.4993 2.3509 0.1319 -3.3975 0.6393 1.8258 -12.4847 -0.2623 2.2990 2.7913 -0.0496 1.1173 3.1121 -0.0000 -0.0000 0.0000 -87.9194 5.9716 26.6681 56.1832 -55.2040 -31.1854 -0.0000 -0.0000 18.1603 11.8452 10.5458 2.1983 -7.1250 0.0000 -0.0000 -13.3502 40.3886 1.5494 -0.0000 -0.0000 0.0000 68.4892 -0.8106 8.9427 -75.0073 59.1334 -47.0537 0.0000 0.0000 16.1610 -42.3307 -25.0030 21.0572 7.1250 -0.0000 -0.0000 -15.9293 -61.5243 6.4992
1.2481 17.4312 6.6184 -182.9230 -73.1210 191.6200 0.0000 0.0000 0.0000 -9.2584 0.9298 -34.8147 8.9375 16.7673 55.8736 0.5144 8.9028 -19.5963 0.8062 -5.7305 -16.0043 0.0000 0.0000 0.0000 10.7113 4.6804 -33.5039 -5.2969 -13.7105 42.0900 -0.6070 -3.0482 -16.1393 -0.0471 1.4004 -3.8511 6.3084 -0.0702 12.9158 5.6048 0.5595 3.6503 2.2498 0.0849 -3.3746 0.6042 1.9000 -12.4141 -0.0781 2.3898 2.6687 0.0212 1.1690 3.0531 -0.0000 -0.0000 0.0000 -87.6101 5.5567 24.9588 56.6147 -55.3382 -31.5400 -0.0000 -0.0000 17.7976 11.6410 10.8964 2.2302 -7.1250 0.0000 -0.0000 -13.6088 40.7181 1.4677 -0.0000 -0.0000 0.0000 68.7074 0.4971 7.7801 -72.1952 58.7676 -44.6444 0.0000 0.0000 16.6092 -44.0156 -25.3590 22.4807 7.1250 -0.0000 -0.0000 -18.3737 -62.4402 7.9301
1.1201 17.3522 6.5994 -181.7780 -73.5527 190.2980 0.0000 0.0000 0.0000 -7.7306 0.5983 -35.4959 8.7693 16.6570 55.2890 0.5376 8.9322 -19.8675 0.8344 -5.8271 -16.2835 0.0000 0.0000 0.0000 11.1353 4.6281 -33.3535 -5.5877 -14.0165 43.3035 -0.6663 -3.6211 -17.1562 -0.0532 1.4882 -4.0932 6.4599 -0.1555 13.1302 5.5935 0.4654 3.7915 2.1689 0.0352 -3.3402 0.5144 1.9695 -12.3662 0.0657 2.4859 2.5664 0.0888 1.2209 3.0053 0.0000 0.0000 0.0000 -87.2251 5.0377 23.1881 56.8826 -55.4203 -31.7605 -0.0000 -0.0000 17.3226 11.4140 11.3923 2.2837 -7.1250 0.0000 -0.0000 -13.9261 41.1876 1.3386 0.0000 0.0000 0.0000 69.0074 1.8860 6.4868 -69.0965 58.2828 -42.0014 0.0000 0.0000 16.8995 -45.5073 -25.9609 24.0167 7.1250 -0.0000 -0.0000 -20.7400 -63.6036 9.5627
0.9913 17.2729 6.5768 -180.4720 -74.0684 188.8050 0.0000 0.0000 0.0000 -6.1782 0.2554 -36.1747 8.5820 16.5311 54.6331 0.5571 8.8725 -20.0132 0.8677 -5.9395 -16.6089 0.0000 0.0000 0.0000 11.6107 4.5387 -33.1360 -5.8787 -14.3098 44.4930 -0.7340 -4.2912 -18.3015 -0.0649 1.6439 -4.5225 6.5971 -0.2432 13.3203 5.5994 0.3660 3.9228 2.1154 -0.0168 -3.3035 0.3778 2.0396 -12.3284 0.1350 2.5948 2.4686 0.1411 1.2757 2.9613 0.0000 -0.0000 0.0000 -86.7374 4.4147 21.3778 56.9437 -55.4390 -31.8108 -0.0000 -0.0000 16.7891 11.2272 11.9773 2.3589 -7.1250 0.0000 -0.0000 -14.2371 41.7467 1.1688 0.0000 -0.0000 0.0000 69.3890 3.3199 5.0823 -65.8236 57.6720 -39.2263 0.0000 0.0000 16.9758 -46.6483 -26.7938 25.5242 7.1250 -0.0000 -0.0000 -22.8007 -64.9389 11.2678
0.8614 17.1941 6.5508 -179.0850 -74.6610 187.2110 0.0000 0.0000 0.0000 -4.6489 -0.1094 -36.8350 8.3708 16.3853 53.8874 0.5712 8.7290 -20.0259 0.9091 -6.0758 -17.0046 0.0000 0.0000 0.0000 12.1051 4.3986 -32.8445 -6.1662 -14.5874 45.6450 -0.8066 -5.0409 -19.5245 -0.0793 1.8164 -4.9984 6.7012 -0.3323 13.5005 5.6107 0.2629 4.0375 2.0870 -0.0703 -3.2797 0.2060 2.1158 -12.2842 0.1076 2.7233 2.3674 0.1689 1.3361 2.9157 0.0000 0.0000 0.0000 -86.1230 3.7097 19.5491 56.7949 -55.3936 -31.6883 -0.0000 -0.0000 16.2314 11.1005 12.6467 2.4597 -7.1250 0.0000 -0.0000 -14.5253 42.3926 0.9565 0.0000 0.0000 0.0000 69.8570 4.7488 3.6040 -62.4957 56.9391 -36.4253 0.0000 0.0000 16.7237 -47.2899 -27.7766 26.7869 7.1250 -0.0000 -0.0000 -24.2357 -66.2904 12.7660
0.7304 17.1161 6.5212 -177.6720 -75.3100 185.5660 0.0000 0.0000 0.0000 -3.1769 -0.4908 -37.4623 8.1309 16.2147 53.0328 0.5777 8.5063 -19.8913 0.9588 -6.2349 -17.4675 0.0000 0.0000 0.0000 12.5947 4.2092 -32.4819 -6.4478 -14.8487 46.7536 -0.8835 -5.8262 -20.7914 -0.0918 1.9538 -5.3779 6.7561 -0.4162 13.6792 5.6148 0.1645 4.1314 2.0784 -0.1208 -3.2776 0.0202 2.2030 -12.2174 -0.0325 2.8755 2.2605 0.1635 1.4039 2.8653 0.0000 0.0000 0.0000 -85.3513 2.9367 17.7301 56.4008 -55.2720 -31.3642 -0.0000 -0.0000 15.6781 11.1928 13.2736 2.6013 -7.1250 0.0000 -0.0000 -14.6178 43.0175 0.7319 0.0000 0.0000 0.0000 70.4125 6.1048 2.1295 -59.2566 56.1086 -33.7233 0.0000 0.0000 15.9952 -47.3925 -28.8763 27.7010 7.1250 -0.0000 -0.0000 -24.8494 -67.5972 13.8410
0.5980 17.0388 6.4882 -176.2390 -76.0038 183.8780 0.0000 0.0000 0.0000 -1.7752 -0.8895 -38.0490 7.8623 16.0170 52.0651 0.5758 8.2062 -19.6035 1.0168 -6.4153 -17.9944 0.0000 0.0000 0.0000 13.0747 3.9748 -32.0513 -6.7208 -15.0922 47.8103 -0.9642 -6.6249 -22.0802 -0.1004 2.0431 -5.6249 6.7651 -0.4922 13.8565 5.5971 0.0750 4.2030 2.0713 -0.1659 -3.2988 -0.1772 2.3035 -12.1348 -0.2528 3.0514 2.1632 0.1353 1.4807 2.8165 0.0000 0.0000 0.0000 -84.3923 2.0975 15.9345 55.7427 -55.0644 -30.8240 -0.0000 -0.0000 15.1100 11.4864 13.7984 2.7747 -7.1250 0.0000 -0.0000 -14.5082 43.5638 0.5260 0.0000 0.0000 0.0000 71.0657 7.3182 0.7540 -56.2350 55.2202 -31.2279 0.0000 0.0000 14.6922 -46.9850 -30.0518 28.2244 7.1250 -0.0000 -0.0000 -24.5479 -68.8171 14.3342
0.4638 16.9625 6.4516 -174.7580 -76.7338 182.1290 0.0000 0.0000 0.0000 -0.4407 -1.3092 -38.5884 7.5624 15.7877 50.9705 0.5647 7.8294 -19.1555 1.0780 -6.5996 -18.5343 0.0000 0.0000 0.0000 13.5510 3.7017 -31.5619 -6.9817 -15.3164 48.8050 -1.0450 -7.4537 -23.3686 -0.1040 2.0795 -5.7254 6.7351 -0.5580 14.0226 5.5465 -0.0030 4.2544 2.0495 -0.2039 -3.3357 -0.3518 2.4118 -12.0491 -0.5488 3.2380 2.0849 0.0793 1.5605 2.7756 0.0000 0.0000 0.0000 -83.2243 1.1992 14.1738 54.8642 -54.7784 -30.1050 -0.0000 -0.0000 14.4664 11.8772 14.2860 2.9709 -7.1250 0.0000 -0.0000 -14.3028 44.0859 0.3297 0.0000 0.0000 0.0000 71.8278 8.3226 -0.4169 -53.5385 54.3266 -29.0250 0.0000 0.0000 12.8069 -46.2978 -31.2923 28.5234 7.1250 -0.0000 -0.0000 -23.6591 -70.0087 14.4167
0.3275 16.8875 6.4115 -173.1100 -77.4836 180.2130 0.0000 0.0000 0.0000 0.8548 -1.7448 -39.0827 7.2350 15.5266 49.7574 0.5448 7.3861 -18.5568 1.1332 -6.7609 -19.0090 0.0000 0.0000 0.0000 14.0496 3.4110 -31.0208 -7.2275 -15.5205 49.7297 -1.1255 -8.3021 -24.6500 -0.1007 2.0465 -5.6342 6.6894 -0.6087 14.1690 5.4561 -0.0616 4.2876 1.9910 -0.2309 -3.3813 -0.4868 2.5166 -11.9955 -0.8875 3.4165 2.0546 0.0029 1.6349 2.7593 0.0000 -0.0000 0.0000 -81.8247 0.2336 12.4584 53.7832 -54.4119 -29.2239 -0.0000 -0.0000 13.6649 12.4306 14.6409 3.1889 -7.1250 0.0000 -0.0000 -13.9131 44.4980 0.1759 0.0000 -0.0000 0.0000 72.7057 9.0438 -1.2653 -51.2586 53.4907 -27.1826 0.0000 0.0000 10.4528 -45.4568 -32.5034 28.6340 7.1250 -0.0000 -0.0000 -22.3371 -71.1047 14.1192
